<svg xmlns="http://www.w3.org/2000/svg" width="105" height="48.931" viewBox="0 0 105 48.931">
  <g id="iBelong_Logo" data-name="iBelong Logo" transform="translate(-9950.001 5742)">
    <circle id="Ellipse_69" data-name="Ellipse 69" cx="5.604" cy="5.604" r="5.604" transform="translate(9976.979 -5704.276)" fill="#6fc78e"/>
    <circle id="Ellipse_70" data-name="Ellipse 70" cx="5.604" cy="5.604" r="5.604" transform="translate(9997.065 -5704.276)" fill="#348fbd"/>
    <circle id="Ellipse_71" data-name="Ellipse 71" cx="5.604" cy="5.604" r="5.604" transform="translate(10016.991 -5704.276)" fill="#ec782a"/>
    <circle id="Ellipse_72" data-name="Ellipse 72" cx="5.604" cy="5.604" r="5.604" transform="translate(10036.985 -5704.276)" fill="#5d3382"/>
    <circle id="Ellipse_73" data-name="Ellipse 73" cx="5.604" cy="5.604" r="5.604" transform="translate(9956.905 -5704.276)" fill="#f8ce37"/>
    <path id="Path_45128" data-name="Path 45128" d="M9.023,37.651v8.3c0,.16,0,.187-.187.187H4.006c-.08,0-.107-.027-.107-.107V29.485c0-.347-.027-.294.294-.294H8.916c.08,0,.107.027.107.107Z" transform="translate(9946.602 -5764.468)"/>
    <path id="Path_45129" data-name="Path 45129" d="M278.466,32.509c.053,0,.053-.053.08-.053a5.689,5.689,0,0,1,1.628-1.761,7.186,7.186,0,0,1,2.7-1.281,7.945,7.945,0,0,1,1.761-.213,9.378,9.378,0,0,1,1.921.187,5.092,5.092,0,0,1,1.388.507,4.462,4.462,0,0,1,1.681,1.548,6.2,6.2,0,0,1,.747,1.788,8.6,8.6,0,0,1,.24,2.028V45.691a1.018,1.018,0,0,1-.027.4,1.017,1.017,0,0,1-.4.027h-.16c-.08,0-.107-.027-.107-.107V35.524a7.8,7.8,0,0,0-.32-2.348,5.2,5.2,0,0,0-.614-1.361,3.955,3.955,0,0,0-2.028-1.574,7.156,7.156,0,0,0-2-.347,5.977,5.977,0,0,0-1.388.08,6.2,6.2,0,0,0-1.948.64,6.949,6.949,0,0,0-2.215,1.708,3.713,3.713,0,0,0-.667,1.014,1.954,1.954,0,0,0-.214.961V45.9c0,.16,0,.16-.187.187h-.347c-.16,0-.16,0-.187-.16v-16.3c0-.32-.027-.294.294-.267.107,0,.24-.053.32.027s.027.213.027.32c0,.454.027.907.027,1.361s.027.934.027,1.388C278.439,32.429,278.439,32.455,278.466,32.509Z" transform="translate(9745.368 -5764.475)"/>
    <path id="Path_45130" data-name="Path 45130" d="M5.035,11.556a4.3,4.3,0,0,1-1.174-.16,3.709,3.709,0,0,1-.747-.32,2.192,2.192,0,0,1-.987-1.388A3.076,3.076,0,0,1,2.073,8.38,2.483,2.483,0,0,1,2.9,6.966a2.869,2.869,0,0,1,1.174-.587,4.667,4.667,0,0,1,2.188.027,2.325,2.325,0,0,1,.827.374A2.149,2.149,0,0,1,8,7.98a3,3,0,0,1,.027,1.681,2.325,2.325,0,0,1-1.468,1.6,3.69,3.69,0,0,1-1.308.267.52.52,0,0,1-.213.027Z" transform="translate(9947.975 -5747.658)" fill="#0086ff"/>
    <path id="Path_45131" data-name="Path 45131" d="M184.019,15.821V27.509a.071.071,0,0,1-.08.08h-.294c-.374,0-.347.053-.347-.32V4.053A.058.058,0,0,1,183.352,4h.587a.058.058,0,0,1,.053.053v.24C184.019,8.136,184.019,11.979,184.019,15.821Z" transform="translate(9814.828 -5746)" fill="#010101"/>
    <path id="Path_45132" data-name="Path 45132" d="M201.2,67.6c.053.24.133.48.187.72v.053a2.4,2.4,0,0,1-.187-.72Z" transform="translate(9801.68 -5792.715)" fill="#333"/>
    <path id="Path_45133" data-name="Path 45133" d="M200.652,56.1a.058.058,0,0,1,.053.053,5.246,5.246,0,0,1-.08.64.1.1,0,0,0-.027-.08,2.587,2.587,0,0,1,.027-.454C200.679,56.233,200.679,56.153,200.652,56.1Z" transform="translate(9802.123 -5784.269)" fill="#333"/>
    <path id="Path_45134" data-name="Path 45134" d="M57.8,23.956a5.135,5.135,0,0,0-1.174-2.562,5.865,5.865,0,0,0-2.242-1.6,8.987,8.987,0,0,0-1.281-.4.848.848,0,0,1-.24-.08c.027-.08.08-.08.133-.08a5.952,5.952,0,0,0,2.188-1.414,5.631,5.631,0,0,0,1.094-1.628,5.259,5.259,0,0,0,.32-2.855,5.006,5.006,0,0,0-2.188-3.5A5.636,5.636,0,0,0,51.052,8.8H42.539c-.267,0-.24-.027-.24.24V31a.071.071,0,0,0,.08.08h8.379a10.177,10.177,0,0,0,1.574-.107A7.44,7.44,0,0,0,54.92,30.2a5,5,0,0,0,2.615-3.122A5.9,5.9,0,0,0,57.8,23.956ZM43.313,9.493h7.418a6.031,6.031,0,0,1,1.948.267,4.5,4.5,0,0,1,2.8,2.321,4.317,4.317,0,0,1,.48,1.708,4.782,4.782,0,0,1-.347,2.188,4.59,4.59,0,0,1-.881,1.361,5.146,5.146,0,0,1-2.775,1.6,5.866,5.866,0,0,1-1.174.133H43.153c-.08,0-.107-.027-.107-.107V9.787C43.046,9.493,43.019,9.493,43.313,9.493ZM57,26.491a4.47,4.47,0,0,1-2.7,3.282,6.223,6.223,0,0,1-1.521.454,8.966,8.966,0,0,1-1.681.16c-1.521.027-3.069,0-4.59,0h-3.2c-.294,0-.267,0-.267-.267V20.034c0-.294-.027-.267.267-.267h7.845a7,7,0,0,1,3.042.64,5.04,5.04,0,0,1,2.135,1.815,4.929,4.929,0,0,1,.747,2A6.466,6.466,0,0,1,57,26.491Z" transform="translate(9918.449 -5749.518)"/>
    <path id="Path_45135" data-name="Path 45135" d="M354.273,29.286a1.622,1.622,0,0,0-.507-.027c-.107,0-.107.027-.107.133a7.5,7.5,0,0,1-.027.774c0,.694-.027,1.388-.027,2.081,0,.507,0,1.014-.027,1.521,0,.053.027.08-.053.16a.38.38,0,0,1-.053-.16,6.86,6.86,0,0,0-1.841-2.668,7.585,7.585,0,0,0-3.069-1.708A7.292,7.292,0,0,0,346.4,29.1a8.913,8.913,0,0,0-2.215.347,7.968,7.968,0,0,0-3.309,2.135,8.661,8.661,0,0,0-2.161,4.43,10.368,10.368,0,0,0-.133,2.028,10.667,10.667,0,0,0,.347,2.428,8.182,8.182,0,0,0,2.322,3.816,7.415,7.415,0,0,0,3.069,1.708,8.3,8.3,0,0,0,2.161.32,6.555,6.555,0,0,0,2.268-.294,7.709,7.709,0,0,0,4.723-4.35c.027-.053.027-.107.107-.107v3.656a8.335,8.335,0,0,1-.294,2.295,7.282,7.282,0,0,1-2.215,3.709,6.425,6.425,0,0,1-3.362,1.628,7,7,0,0,1-1.975.027,7.382,7.382,0,0,1-2.508-.747,7.9,7.9,0,0,1-1.788-1.308c-.053-.053-.107-.133-.187-.133-.107.16-.187.347-.294.507-.053.08-.053.107.027.187l.053.053a7.093,7.093,0,0,0,2.135,1.521,8.319,8.319,0,0,0,2.508.667,8.08,8.08,0,0,0,2.268-.053,7.184,7.184,0,0,0,4.456-2.508,8.014,8.014,0,0,0,1.734-3.949,12.616,12.616,0,0,0,.133-2V29.74a.87.87,0,0,0,0-.454Zm-.8,9.927A8.072,8.072,0,0,1,352,42.9a6.522,6.522,0,0,1-3.6,2.508,6.6,6.6,0,0,1-1.6.213,7.921,7.921,0,0,1-2.081-.24,6.7,6.7,0,0,1-2.962-1.6,7.623,7.623,0,0,1-2.215-3.789,7.418,7.418,0,0,1-.24-2.108,9.275,9.275,0,0,1,.48-3.149,7.482,7.482,0,0,1,1.788-2.909,7,7,0,0,1,3.442-1.841,7.685,7.685,0,0,1,1.574-.16,6.411,6.411,0,0,1,5.257,2.535,7.537,7.537,0,0,1,1.574,3.629A9.363,9.363,0,0,1,353.472,39.213Z" transform="translate(9700.698 -5764.401)"/>
    <path id="Path_45136" data-name="Path 45136" d="M126.988,35.774a7.583,7.583,0,0,0-.881-3.229,6.351,6.351,0,0,0-2.962-2.775,7.607,7.607,0,0,0-2.508-.667,8.565,8.565,0,0,0-2.855.213,7.02,7.02,0,0,0-4.109,2.775,8.482,8.482,0,0,0-1.548,3.949,11.408,11.408,0,0,0,0,3.015,9.213,9.213,0,0,0,1.041,3.2,7.673,7.673,0,0,0,4.7,3.736,8.675,8.675,0,0,0,2.188.32,8.174,8.174,0,0,0,2.135-.213,8.539,8.539,0,0,0,3.576-1.788c.133-.107.267-.24.4-.347a.066.066,0,0,0,.027-.107c-.107-.133-.187-.294-.294-.427-.027-.053-.08-.053-.133,0-.027.027-.08.053-.107.08a8.4,8.4,0,0,1-2.161,1.414,7.373,7.373,0,0,1-2.242.614,9.435,9.435,0,0,1-2.295-.027,7.011,7.011,0,0,1-2.322-.774,7.163,7.163,0,0,1-2.989-3.176,8.913,8.913,0,0,1-.881-3.709c0-.347-.053-.294.294-.294h13.823c.16,0,.16,0,.16-.16v-.08C126.988,36.788,127.015,36.281,126.988,35.774Zm-.721.934c0,.107-.027.107-.133.107H112.818a.071.071,0,0,1-.08-.08,2.058,2.058,0,0,1,.053-.4,8.425,8.425,0,0,1,1.121-3.282,6.482,6.482,0,0,1,3.309-2.775,7.368,7.368,0,0,1,2.4-.454,6.8,6.8,0,0,1,1.468.107,6.084,6.084,0,0,1,3.2,1.654,6.508,6.508,0,0,1,1.815,3.362,9.144,9.144,0,0,1,.16,1.468A.546.546,0,0,1,126.268,36.708Z" transform="translate(9867.156 -5764.378)"/>
    <g id="Group_15077" data-name="Group 15077" transform="translate(10001.922 -5736.45)">
      <path id="Path_45137" data-name="Path 45137" d="M232.663,71.2h0a2.62,2.62,0,0,1,4.19-3.149.026.026,0,0,0,.027.027,8.527,8.527,0,0,0,1.441-3.309,6.048,6.048,0,0,0-9.206,6.885A8.578,8.578,0,0,0,232.663,71.2Z" transform="translate(-220.522 -53.291)" fill="#348fbd"/>
      <circle id="Ellipse_74" data-name="Ellipse 74" cx="1.521" cy="1.521" r="1.521" transform="translate(12.729 14.837)" fill="#348fbd"/>
      <path id="Path_45138" data-name="Path 45138" d="M202.314,67.9h0a2.618,2.618,0,1,1,4.163,3.175l-.027.027a8.61,8.61,0,0,0,3.576.48,6.048,6.048,0,0,0-9.126-6.991A9.082,9.082,0,0,0,202.314,67.9Z" transform="translate(-200.073 -53.197)" fill="#ec782a"/>
      <circle id="Ellipse_75" data-name="Ellipse 75" cx="1.521" cy="1.521" r="1.521" transform="translate(2.775 14.81)" fill="#ec782a"/>
      <circle id="Ellipse_76" data-name="Ellipse 76" cx="1.521" cy="1.521" r="1.521" transform="translate(0 5.55)" fill="#5d3382"/>
      <circle id="Ellipse_77" data-name="Ellipse 77" cx="1.521" cy="1.521" r="1.521" transform="translate(7.792 0)" fill="#f8ce37"/>
      <path id="Path_45141" data-name="Path 45141" d="M246.307,40.565h0A2.625,2.625,0,1,1,244.6,35.6h.027a8.923,8.923,0,0,0-2.7-2.4,6.045,6.045,0,0,0,3.683,10.887A8.309,8.309,0,0,0,246.307,40.565Z" transform="translate(-228.375 -30.958)" fill="#6fc78e"/>
      <circle id="Ellipse_78" data-name="Ellipse 78" cx="1.521" cy="1.521" r="1.521" transform="translate(15.584 5.604)" fill="#6fc78e"/>
      <path id="Path_45142" data-name="Path 45142" d="M227.036,29.84a1.521,1.521,0,1,1-3.042,0,.739.739,0,0,1,.027-.24c-.374.08-.774.16-1.121.267v.027a2.615,2.615,0,1,0,5.23,0v-.027a8.53,8.53,0,0,0-1.121-.267C227.009,29.68,227.036,29.76,227.036,29.84Z" transform="translate(-216.202 -28.319)" fill="#fff"/>
      <path id="Path_45143" data-name="Path 45143" d="M255.173,46.1a1.511,1.511,0,0,1-.987-2.855.779.779,0,0,1,.24-.053c-.187-.347-.4-.667-.614-.987h-.027a2.62,2.62,0,1,0,1.681,4.964h.027a8.342,8.342,0,0,0-.107-1.147C255.306,46.043,255.253,46.069,255.173,46.1Z" transform="translate(-237.561 -37.557)" fill="#fff"/>
      <path id="Path_45144" data-name="Path 45144" d="M242.694,79.8a1.494,1.494,0,0,1,.294-2.108,1.517,1.517,0,0,1,2.108.294,1.489,1.489,0,0,1,.133.213c.267-.294.507-.587.747-.907a.026.026,0,0,0-.027-.027,2.621,2.621,0,1,0-4.19,3.149l.027.026c.374-.133.72-.294,1.067-.454A1.162,1.162,0,0,0,242.694,79.8Z" transform="translate(-229.645 -62.512)" fill="#fff"/>
      <path id="Path_45145" data-name="Path 45145" d="M207.054,77.781a1.5,1.5,0,0,1,2.108-.294,1.524,1.524,0,0,1,.294,2.108c-.053.053-.107.133-.16.187a7.671,7.671,0,0,0,1.067.48l.027-.027a2.626,2.626,0,1,0-4.163-3.2.026.026,0,0,1-.026.027,7.674,7.674,0,0,0,.721.907C206.974,77.915,207,77.835,207.054,77.781Z" transform="translate(-203.958 -62.357)" fill="#fff"/>
      <path id="Path_45146" data-name="Path 45146" d="M201.808,42.967a1.509,1.509,0,0,1,.934,1.921,1.531,1.531,0,0,1-1.921.934.534.534,0,0,1-.213-.107,8.339,8.339,0,0,0-.107,1.147h.027a2.629,2.629,0,1,0,1.735-4.964h-.027c-.24.32-.427.64-.64.987C201.647,42.941,201.728,42.941,201.808,42.967Z" transform="translate(-199.78 -37.337)" fill="#fff"/>
      <path id="Path_45140" data-name="Path 45140" d="M219.552,30.7h0a2.615,2.615,0,1,1-5.23.027V30.7a8.452,8.452,0,0,0-3.122,1.788,6.035,6.035,0,0,0,11.474,0,8.452,8.452,0,0,0-3.122-1.788Z" transform="translate(-207.624 -29.126)" fill="#f8ce37"/>
      <path id="Path_45139" data-name="Path 45139" d="M202.128,35.548h0a2.625,2.625,0,1,1-1.708,4.964h-.027a8.913,8.913,0,0,0,.64,3.549A6.046,6.046,0,0,0,204.823,33.2a8.1,8.1,0,0,0-2.7,2.348Z" transform="translate(-199.7 -30.958)" fill="#5d3382"/>
    </g>
  </g>
</svg>
